REM DIRINDEX 1\2,1\3,1\4,1\5
REM DIRNAME "folder01","folder02","folder03","folder04","folder05"
TITLE ""
FILE "1Q_t_0329-0338.mp3" MP3
  TRACK 01 AUDIO
    TITLE "0:"
    INDEX 01 00:00:00
  TRACK 02 AUDIO
    TITLE "3:cjc172_1910"
    INDEX 01 00:00:10
  TRACK 03 AUDIO
    TITLE "0:"
    INDEX 01 00:01:39
  TRACK 04 AUDIO
    TITLE "4:cjc172_1911"
    INDEX 01 00:01:53
  TRACK 05 AUDIO
    TITLE "0:"
    INDEX 01 00:02:62
  TRACK 06 AUDIO
    TITLE "5:cjc172_1912"
    INDEX 01 00:03:03
  TRACK 07 AUDIO
    TITLE "0:"
    INDEX 01 00:07:51
  TRACK 08 AUDIO
    TITLE "3:cjc172_1913"
    INDEX 01 00:08:27
  TRACK 09 AUDIO
    TITLE "0:"
    INDEX 01 00:09:41
  TRACK 10 AUDIO
    TITLE "4:cjc172_1914"
    INDEX 01 00:09:56
  TRACK 11 AUDIO
    TITLE "0:"
    INDEX 01 00:12:37
  TRACK 12 AUDIO
    TITLE "5:cjc172_1915"
    INDEX 01 00:12:51
  TRACK 13 AUDIO
    TITLE "0:"
    INDEX 01 00:18:20
  TRACK 14 AUDIO
    TITLE "3:cjc172_1916"
    INDEX 01 00:18:71
  TRACK 15 AUDIO
    TITLE "0:"
    INDEX 01 00:19:72
  TRACK 16 AUDIO
    TITLE "4:cjc172_1917"
    INDEX 01 00:20:15
  TRACK 17 AUDIO
    TITLE "0:"
    INDEX 01 00:21:28
  TRACK 18 AUDIO
    TITLE "5:cjc172_1918"
    INDEX 01 00:21:44
  TRACK 19 AUDIO
    TITLE "0:"
    INDEX 01 00:26:25
  TRACK 20 AUDIO
    TITLE "3:cjc172_1919"
    INDEX 01 00:27:01
  TRACK 21 AUDIO
    TITLE "0:"
    INDEX 01 00:28:13
  TRACK 22 AUDIO
    TITLE "4:cjc172_1920"
    INDEX 01 00:28:30
  TRACK 23 AUDIO
    TITLE "0:"
    INDEX 01 00:31:40
  TRACK 24 AUDIO
    TITLE "5:cjc172_1921"
    INDEX 01 00:31:54
  TRACK 25 AUDIO
    TITLE "0:"
    INDEX 01 00:37:60
  TRACK 26 AUDIO
    TITLE "3:cjc172_1922"
    INDEX 01 00:38:38
  TRACK 27 AUDIO
    TITLE "0:"
    INDEX 01 00:39:46
  TRACK 28 AUDIO
    TITLE "4:cjc172_1923"
    INDEX 01 00:39:63
  TRACK 29 AUDIO
    TITLE "0:"
    INDEX 01 00:43:18
  TRACK 30 AUDIO
    TITLE "5:cjc172_1924"
    INDEX 01 00:43:34
  TRACK 31 AUDIO
    TITLE "0:"
    INDEX 01 00:49:66
  TRACK 32 AUDIO
    TITLE "3:cjc172_1925"
    INDEX 01 00:50:42
  TRACK 33 AUDIO
    TITLE "0:"
    INDEX 01 00:51:51
  TRACK 34 AUDIO
    TITLE "4:cjc172_1926"
    INDEX 01 00:51:66
  TRACK 35 AUDIO
    TITLE "0:"
    INDEX 01 00:53:01
  TRACK 36 AUDIO
    TITLE "5:cjc172_1927"
    INDEX 01 00:53:14
  TRACK 37 AUDIO
    TITLE "0:"
    INDEX 01 00:58:45
  TRACK 38 AUDIO
    TITLE "3:cjc172_1928"
    INDEX 01 00:59:23
  TRACK 39 AUDIO
    TITLE "0:"
    INDEX 01 01:00:61
  TRACK 40 AUDIO
    TITLE "4:cjc172_1929"
    INDEX 01 01:01:04
  TRACK 41 AUDIO
    TITLE "0:"
    INDEX 01 01:02:66
  TRACK 42 AUDIO
    TITLE "5:cjc172_1930"
    INDEX 01 01:03:05
  TRACK 43 AUDIO
    TITLE "0:"
    INDEX 01 01:09:10
  TRACK 44 AUDIO
    TITLE "3:cjc172_1931"
    INDEX 01 01:09:62
  TRACK 45 AUDIO
    TITLE "0:"
    INDEX 01 01:10:74
  TRACK 46 AUDIO
    TITLE "4:cjc172_1932"
    INDEX 01 01:11:14
  TRACK 47 AUDIO
    TITLE "0:"
    INDEX 01 01:12:65
  TRACK 48 AUDIO
    TITLE "5:cjc172_1933"
    INDEX 01 01:13:05
  TRACK 49 AUDIO
    TITLE "0:"
    INDEX 01 01:19:04
  TRACK 50 AUDIO
    TITLE "3:cjc172_1934"
    INDEX 01 01:19:61
  TRACK 51 AUDIO
    TITLE "0:"
    INDEX 01 01:20:62
  TRACK 52 AUDIO
    TITLE "4:cjc172_1935"
    INDEX 01 01:21:05
  TRACK 53 AUDIO
    TITLE "0:"
    INDEX 01 01:23:25
  TRACK 54 AUDIO
    TITLE "5:cjc172_1936"
    INDEX 01 01:23:39
  TRACK 55 AUDIO
    TITLE "0:"
    INDEX 01 01:30:06
  TRACK 56 AUDIO
    TITLE "3:cjc172_1937"
    INDEX 01 01:30:61
  TRACK 57 AUDIO
    TITLE "0:"
    INDEX 01 01:31:58
  TRACK 58 AUDIO
    TITLE "4:cjc172_1938"
    INDEX 01 01:32:03
  TRACK 59 AUDIO
    TITLE "0:"
    INDEX 01 01:33:26
  TRACK 60 AUDIO
    TITLE "5:cjc172_1939"
    INDEX 01 01:33:43
  TRACK 61 AUDIO
    TITLE "0:"
    INDEX 01 01:40:63
